<svg
            preserveAspectRatio="xMidYMid meet"
            data-bbox="722.365 427.149 2864.635 502.658"
            viewBox="722.365 427.149 2864.635 502.658"
            height="1873.333"
            width="5817.333"
            xmlns="http://www.w3.org/2000/svg"
            data-type="shape"
            role="presentation"
            aria-hidden="true"
            aria-label=""
            class="maaindLogo"
          >
            <g>
              <path
                d="M1078.5 428.1c-9.8 27.8-19.3 56.4-19 57 .3.4 2.9 1.5 5.8 2.5 7.1 2.3 21.2 10.7 33.8 20 43.6 32.5 75.2 82.9 85.3 136.4 4.1 22 4.6 56.3 1.1 77-8.1 47.6-29.1 88.2-64.1 124-4.1 4.2-7.4 7.9-7.4 8.2 0 .4 6.8 9.6 15.1 20.3 10.4 13.5 15.4 19.3 16.2 18.7.7-.5 4.4-3.3 8.2-6.2 3.9-3 7.4-5.7 7.9-6.1.7-.6-3.9-7-17.6-24.6-.6-.7 1.9-4.5 7.8-11.5 55.6-66.3 72.6-154.6 45.3-236-17.4-51.9-51.7-96.2-98.4-126.8-6-3.9-11.1-7.3-11.3-7.5-.2-.2 2.7-8.9 6.4-19.4 3.8-11 6.3-19.6 5.8-20-.5-.5-4.7-2.1-9.4-3.6s-9.1-3-9.7-3.3c-.7-.2-1.5.2-1.8.9z"
              ></path>
              <path
                d="M847.3 432.3c-5.1 1.7-9.3 3.6-9.3 4.2 0 .6 2.5 8.5 5.5 17.5s5.5 16.5 5.5 16.6c0 .1-4.2 2.8-9.2 6-25.8 16.3-53.6 41.4-69.4 62.6-23.4 31.4-38 65.9-45.6 108.2-3 16.3-3.3 57-.5 74.1 8 50.8 28 91.9 64.2 131.8l10.7 11.8-7 12.2c-3.9 6.7-7.2 12.8-7.4 13.5-.3 1.3 18 12.7 18.9 11.8.3-.3 5.9-9.8 12.4-21.3l12-20.8-3.8-3c-7-5.4-24.4-22.9-31-31-25.7-32-41.6-68.2-47.9-109.5-2.4-15.8-2.4-47.2 0-63 7.5-48.4 29-91.5 62.5-125.1 20.9-20.9 44.1-36.8 62.4-42.8 3.7-1.3 6.7-2.3 6.7-2.4 0-.1-4-12.4-9-27.2-5.2-15.7-9.5-27.1-10.2-27.2-.7-.1-5.5 1.3-10.5 3z"
              ></path>
              <path
                d="M2757.7 432.1c-9.4 2.2-19.2 9.3-24.5 17.7-4.9 7.8-6.5 14.2-6 24.6.5 12 4.2 19.9 12.8 27.9 8.2 7.6 14.8 10.1 26.5 10.2 8.2 0 9.7-.3 15.6-3.2 8-4 15.9-12 19.7-20 2.4-5.2 2.7-6.9 2.7-16.8-.1-13.8-2.2-19.9-10-28.3-9.7-10.5-23.8-15.2-36.8-12.1z"
              ></path>
              <path
                d="M3537 522.8c0 50-.3 91.1-.6 91.4-.3.3-6.7-5.6-14.2-13.1-19.9-19.9-37.6-31.3-60.9-39-31.8-10.6-71.2-10.2-104.6.9-36.9 12.4-68.1 37.3-92 73.5-21.1 32.1-31.2 70.4-29.3 112.1 2.1 48.4 19.3 89.1 51.9 123 21.6 22.5 41.6 35.8 67.6 44.8 18.4 6.4 29.6 8.1 54.1 8 19.9 0 22.4-.2 33.5-2.8 32.3-7.5 59.2-23.3 85.5-50 4.1-4.2 7.8-7.6 8.2-7.6.5 0 .8 11 .8 24.5V913h50V432h-50v90.8zm-99.9 84.8c9.9 1.7 23 5.9 31.4 10.1 16.3 8.2 35.8 25.2 46.3 40.6 9.9 14.4 17.9 34 22.3 54.7 3 14.1 3.3 41.1.6 54-13.5 63.9-60.5 105.8-121.7 108.6-32.2 1.5-59.9-9.6-86.3-34.6-15.2-14.4-25.8-29.7-33.1-48-14.8-37-12.8-80.8 5.3-116.8 7-13.8 13.9-23.2 26-35.2 19.1-19 37.8-29.1 62.3-33.5 10.6-1.9 35.4-1.8 46.9.1z"
              ></path>
              <path
                d="M948.1 512.1c-66.5 7.5-121.8 49.2-146.7 110.7-4.7 11.6-10 32.3-11.4 45.1-1.8 14.8-.8 40.7 1.9 54.5 9.6 47.6 37 88.1 77.6 114.9 55.2 36.3 128.9 38 186 4.3 43.8-25.9 73.4-67.6 84.2-118.5 2.4-11.4 2.7-14.7 2.7-34.1.1-18.6-.2-23-2.2-33-7.8-38.4-24.1-68.3-52.3-95.6-31.5-30.4-72.8-47.6-117.4-48.9-7.7-.2-17.8 0-22.4.6zm48 23.8c63.2 12.8 112.2 63 123 125.9 2.6 15.6 2.6 37.9-.1 53.7-8.2 48-39.8 90.4-83.5 112-14.3 7.1-23.7 10.4-38.9 13.7-8.6 1.9-13.2 2.2-30.6 2.2-17.6 0-22-.3-31-2.3-31.2-6.7-56.3-20.3-78.6-42.6-32.7-32.6-48.8-75.7-45.3-121.6 1-14.4 3-24.4 7.5-37.7 15.4-46.4 53.8-84.2 100.4-99 8.1-2.5 18.9-4.8 31.5-6.6 7.3-1.1 36.3.4 45.6 2.3z"
              ></path>
              <path
                d="M1462 554.6c-24.3 3.5-39.6 9.1-57.5 20.9-9.5 6.3-22.9 18.6-30.9 28.4-3.2 3.9-6.2 7.1-6.7 7.1s-.9-10.7-.9-24v-24l-24.7.2-24.8.3v349h50l.2-87.5c.2-49.9.7-93.7 1.4-102 2.5-34.8 9.1-56.9 22.6-75.9 13.1-18.4 34.9-33.7 55.8-39.2 10.5-2.7 28.8-2.9 39-.4 16 3.9 30.6 13.9 39.3 26.9 8.8 13.1 12.4 26.5 14.2 52.1.5 8.7 1 59.7 1 120.7V913h50.9l.4-92.3c.4-98.1.5-100.6 5.7-127.7 7.1-37.8 26.1-64.2 56.6-78.7 32.7-15.5 67.2-10.9 89.9 12.1 11.2 11.3 16 22.8 19.7 46.6.8 5.2 1.3 43.6 1.7 123.5l.6 116 25.8.3 25.8.2-.4-115.7c-.3-113.8-.3-116-2.5-129.8-6.5-40.9-16.4-63.8-35.4-82.1-16.2-15.6-33.5-24.7-56.3-29.6-8.1-1.7-35.1-1.7-44 .1-37.3 7.3-69.8 30.1-92 64.4-2.7 4.2-5.3 7.7-5.6 7.7-.4 0-1.4-2.1-2.4-4.8-13.4-36.3-47.9-62.9-88.5-68.2-7.2-.9-22.8-1.1-28-.4z"
              ></path>
              <path
                d="M2043.5 555.1c-43.5 4.1-77.7 21.2-110.1 55.2-13.2 13.8-22 26.3-30.4 43.2-14.6 29.3-21.1 60-19.7 93 2.2 48.2 16.6 84.4 47.7 120 26 29.7 59.5 49.3 96.2 56.2 14.4 2.7 47.9 2.5 61.1-.5 14.4-3.2 26.7-7.6 39.7-14.3 15.9-8.2 28.2-17.3 43.1-31.7 6.9-6.7 12.9-12.2 13.3-12.2.3 0 .7 11.1.8 24.7l.3 24.8 24.1.3 24.1.2.7-3.7c.8-4.9.8-341.1 0-344.1l-.6-2.2H2185v25.5c0 14-.2 25.5-.4 25.5s-6.6-6.2-14.2-13.8c-28.8-28.7-56.8-42.2-95.3-46.1-11.6-1.2-18.5-1.2-31.6 0zM2092 609c32.7 8.6 63.3 33.3 79.3 63.8 17.4 33.3 21.2 76.9 9.8 112-6.7 20.5-18.4 39.6-33 54.3-24.7 24.7-58.6 38.4-90.1 36.4-33.3-2.1-57.1-12.2-79.7-33.9-29.2-27.8-43.5-61.2-43.5-101.1 0-16.9 2-30.3 6.7-44.3 15.3-45.7 53.1-80.6 96.2-88.7 12.3-2.3 43.2-1.4 54.3 1.5z"
              ></path>
              <path
                d="M2466.6 555.1c-52.9 4.7-99 33.9-131 83.1-21.8 33.5-31.9 77.9-27.6 120.9 4.6 45 22.8 83.5 54.4 115.3 25.8 25.9 51.8 40.4 85.6 47.8 14.3 3.1 49.7 3.3 63 .4 33.2-7.2 58.7-21.4 85.7-47.9l12.3-12 .2 25.4.3 25.4h49l.3-174.8.2-174.7h-50v23.4c0 12.9-.3 24.2-.6 25-.5 1.2-3.9-1.6-14.3-11.6-29.5-28.7-57.8-42.2-95.6-45.8-12.4-1.1-17.7-1.1-31.9.1zM2516 609c20.7 5.5 40 16.9 56.6 33.4 18.6 18.7 30.5 41.3 35.9 68.2 3.6 18.5 3.6 43.7-.1 61.9-7.5 36.9-35 73.6-67.4 90-26.7 13.5-60.9 16.9-89 8.9-39.6-11.3-76.5-49.9-88.4-92.4-4.8-17.2-6.1-43.7-3.2-62.3 8.7-53.9 51.2-99.8 101.3-109.2 12.3-2.3 43.2-1.4 54.3 1.5z"
              ></path>
              <path
                d="M3027.5 554.6c-37.1 4-69 20.9-97.5 51.7-3.5 3.7-6.6 6.5-6.9 6.1-.3-.3-.8-11.4-1.1-24.7l-.5-24.2-22-.3c-12.1-.2-23.5 0-25.2.3l-3.3.6V913l25.3-.2 25.2-.3.6-94c.7-102.6 1.1-111.5 7-132.5 10-36.5 43.5-70.3 78.5-79.5 14.3-3.8 35.1-3.7 49.9 0 23.5 5.9 41 23.6 50.1 50.3 7.7 22.6 8.4 36.1 8.4 157.9V913h51v-91.8c0-95.1-.9-130.8-3.5-149-5.5-37.6-16.7-62.4-37.5-83.2-16.7-16.7-36.8-27.5-60.2-32.6-7.2-1.5-30.5-2.6-38.3-1.8z"
              ></path>
              <path
                d="M2740.6 572.2c-.8 11.9-.8 284 .1 316.1l.6 24.7 24.6-.2 24.6-.3.3-174.8.2-174.7h-49.7l-.7 9.2z"
              ></path>
              <path
                d="M1081.9 875.1c-6.8 5.1-28.3 15.7-41.4 20.5-37.6 13.5-83.3 16.2-123.5 7.5-19.2-4.2-40.6-12.5-56.7-22.1l-5.1-3.1-11.4 18.8c-6.2 10.3-11.4 19.3-11.6 19.9-.2.6 3 3.1 7 5.4 4 2.4 8.3 5 9.5 5.7 2 1.3 2.4 1 8.3-8.9 3.4-5.7 6.3-10.4 6.5-10.6.2-.2 5.4 1.7 11.7 4.2 64.5 25.8 137.8 22.8 199.4-8.2l8.1-4 8.3 10.9 8.2 10.9 2.7-1.9c7.2-5.2 14.6-11.3 14.6-12.2 0-1.2-27.4-36.9-28.4-36.9-.4 0-3.2 1.8-6.2 4.1z"
              ></path>
            </g>
          </svg>
